<?xml version="1.0" encoding="iso-8859-1"?>
<!-- Generator: Adobe Illustrator 19.0.0, SVG Export Plug-In . SVG Version: 6.00 Build 0)  -->
<svg version="1.1" id="Capa_1" xmlns="http://www.w3.org/2000/svg" xmlns:xlink="http://www.w3.org/1999/xlink" x="0px" y="0px"
	 viewBox="0 0 497.552 497.552" style="enable-background:new 0 0 497.552 497.552;" xml:space="preserve">
<g>
	<g>
		<g>
			<path d="M369.552,240.776c-70.576,0-128,57.424-128,128s57.424,128,128,128s128-57.424,128-128S440.128,240.776,369.552,240.776z
				 M257.552,368.776c0-61.76,50.24-112,112-112c30.576,0,58.296,12.336,78.528,32.264l-107.392,50.864l-50.864,107.4
				C269.896,427.072,257.552,399.352,257.552,368.776z M360.376,348.288l56.36-26.696l-26.696,56.352L360.376,348.288z
				 M378.728,389.256l-56.36,26.696l26.696-56.352L378.728,389.256z M369.552,480.776c-30.568,0-58.296-12.336-78.528-32.264
				l107.392-50.872l50.872-107.392c19.928,20.232,32.264,47.952,32.264,78.528C481.552,430.536,431.312,480.776,369.552,480.776z"/>
			<path d="M369.552,288.776c12.352,0,24.304,2.832,35.52,8.408l7.128-14.328c-13.456-6.688-27.808-10.08-42.648-10.08
				c-52.936,0-96,43.064-96,96c0,14.848,3.392,29.2,10.08,42.648l14.328-7.128c-5.576-11.208-8.408-23.16-8.408-35.52
				C289.552,324.664,325.44,288.776,369.552,288.776z"/>
			<path d="M455.472,326.128l-14.328,7.128c5.576,11.208,8.408,23.16,8.408,35.52c0,44.112-35.888,80-80,80
				c-12.352,0-24.304-2.832-35.52-8.408l-7.128,14.328c13.456,6.688,27.808,10.08,42.648,10.08c52.936,0,96-43.064,96-96
				C465.552,353.928,462.16,339.576,455.472,326.128z"/>
			<path d="M249.552,288.776v-36.8l15.472,4.216c4.304,1.168,8.344,3.04,12.024,5.544l9.016-13.216
				c-5.152-3.504-10.816-6.128-16.832-7.768l-51.68-14.088v-9.888h-16v15.2c-3.8,19.008-20.624,32.8-40,32.8
				c-19.376,0-36.192-13.784-40-32.8v-15.2h-16v9.888l-51.68,14.096c-1.488,0.408-2.888,1.008-4.32,1.528v-33.512
				c0-13.232,10.768-24,24-24h28.688l24.976,24.968c4.52,4.536,10.552,7.032,16.968,7.032h34.744c6.408,0,12.44-2.496,16.976-7.032
				l24.968-24.968h28.68c13.232,0,24,10.768,24,24v16h16v-16c0-22.056-17.944-40-40-40H234.08c1.56-2.704,2.88-5.528,3.96-8.456
				c15.504-2.2,27.512-15.432,27.512-31.544c0-5.856-1.696-11.272-4.448-16h44.448c13.232,0,24-10.768,24-24s-10.768-24-24-24
				H249.08c-4-35.944-34.536-64-71.528-64h-32c-39.696,0-72,32.296-72,72v28.448c-9.52,5.552-16,15.76-16,27.552
				c0,16.112,12.008,29.344,27.52,31.544c1.08,2.92,2.4,5.744,3.96,8.456h-15.48c-22.056,0-40,17.944-40,40v42.432
				c-10.84,8.704-18.312,21.216-20.336,35.376L0,360.776h225.552v-16h-8V243.248l16,4.368v41.16H249.552z M249.552,80.776h56
				c4.408,0,8,3.584,8,8s-3.592,8-8,8h-56V80.776z M241.552,140.888V115c4.76,2.776,8,7.88,8,13.776
				c0,5.928-3.28,11.056-8.08,13.816C241.488,142.024,241.552,141.464,241.552,140.888z M73.552,128.776c0-5.896,3.24-11,8-13.776
				v25.888c0,0.576,0.064,1.136,0.08,1.704C76.832,139.832,73.552,134.704,73.552,128.776z M225.552,140.896
				c0,10.68-4.16,20.728-11.712,28.288l-29.256,29.248c-1.512,1.512-3.528,2.344-5.664,2.344h-34.744
				c-2.136,0-4.152-0.832-5.664-2.344l-29.248-29.248c-7.552-7.568-11.712-17.608-11.712-28.288v-28.12h128V140.896z
				 M137.552,96.776v-16h48v16H137.552z M89.552,72.776c0-30.872,25.12-56,56-56h32c30.88,0,56,25.128,56,56v24h-32v-16
				c0-8.824-7.176-16-16-16h-48c-8.824,0-16,7.176-16,16v16h-32V72.776z M73.552,344.776H19.104l9.904-55.648
				C31.264,273.32,42.68,260.4,58.08,256.2l15.472-4.224V344.776z M105.552,344.776h-16v-97.16l16-4.368V344.776z M201.552,344.776
				h-80v-80.808c10.384,10.36,24.536,16.808,40,16.808c15.448,0,29.592-6.44,40-16.928V344.776z"/>
		</g>
	</g>
</g>
<g>
</g>
<g>
</g>
<g>
</g>
<g>
</g>
<g>
</g>
<g>
</g>
<g>
</g>
<g>
</g>
<g>
</g>
<g>
</g>
<g>
</g>
<g>
</g>
<g>
</g>
<g>
</g>
<g>
</g>
</svg>
